# xmcd
#
# Track frame offsets:
#	150
#	19752
#	38882
#	55842
#	71815
#	89177
#	107285
#	124740
#	142630
#	159557
#
# Disc length: 2392 seconds
#
# Revision: 5
# Processed by: cddbd v1.5.2PL0 Copyright (c) Steve Scherf et al.
# Submitted via: EasyCDDAExtractor 15.3.0.1
#
DISCID=8109560a
DTITLE=Yolandita Monge - Portfolio
DYEAR=1990
DGENRE=Latin
TTITLE0=Cantare
TTITLE1=Laberinto Sin Salida
TTITLE2=Fuiste Un Sueño
TTITLE3=Contra La Pared
TTITLE4=Ahora No
TTITLE5=Sin Amor
TTITLE6=No Me Acostumbro
TTITLE7=Esta Guerra La Perdere
TTITLE8=Como Duele La Noche
TTITLE9=Despierto Soñandote
EXTD=
EXTT0=
EXTT1=
EXTT2=
EXTT3=
EXTT4=
EXTT5=
EXTT6=
EXTT7=
EXTT8=
EXTT9=
PLAYORDER=
